<svg xmlns="http://www.w3.org/2000/svg" width="1450.890625" viewBox="0 -3 1450.890625 537.5999755859375" role="img" height="537.5999755859375" font-family="Noto Sans CJK SC,Microsoft YaHei,PingFang SC,sans-serif" font-size="16" aria-labelledby="architecture-title architecture-desc"><title id="architecture-title">AI Workspace 单工作区目标架构</title><desc id="architecture-desc">作者通过 Agent 操作唯一 aiworkspace，其中保存八类研究内容、通用工具和受保护的项目状态。manuscript 与它并列，Overleaf-Workshop 只同步稿件。目录迁移尚未完成。</desc><rect x="0" y="-3" width="1450.891" height="537.6" fill="#ffffff" /><g><marker id="rw-architecture_flowchart-v2-pointEnd" viewBox="0 0 10 10" refX="5" refY="5" markerUnits="userSpaceOnUse" markerWidth="8" markerHeight="8" orient="auto"><path d="M 0 0 L 10 5 L 0 10 z" fill="#666666" stroke="#666666" stroke-dasharray="1px, 0px" /></marker><marker id="rw-architecture_flowchart-v2-pointStart" viewBox="0 0 10 10" refX="4.5" refY="5" markerUnits="userSpaceOnUse" markerWidth="8" markerHeight="8" orient="auto"><path d="M 0 5 L 10 10 L 10 0 z" fill="#666666" stroke="#666666" stroke-dasharray="1px, 0px" /></marker><marker viewBox="0 0 10 10" refX="11" refY="5" markerUnits="userSpaceOnUse" markerWidth="11" markerHeight="11" orient="auto"><circle cx="5" cy="5" r="5" fill="#666666" stroke="#666666" stroke-dasharray="1px, 0px" /></marker><marker viewBox="0 0 10 10" refX="-1" refY="5" markerUnits="userSpaceOnUse" markerWidth="11" markerHeight="11" orient="auto"><circle cx="5" cy="5" r="5" fill="#666666" stroke="#666666" stroke-dasharray="1px, 0px" /></marker><marker viewBox="0 0 11 11" refX="12" refY="5.2" markerUnits="userSpaceOnUse" markerWidth="11" markerHeight="11" orient="auto"><path d="M 1,1 l 9,9 M 10,1 l -9,9" fill="#666666" stroke="#666666" stroke-width="2" stroke-dasharray="1px, 0px" /></marker><marker viewBox="0 0 11 11" refX="-1" refY="5.2" markerUnits="userSpaceOnUse" markerWidth="11" markerHeight="11" orient="auto"><path d="M 1,1 l 9,9 M 10,1 l -9,9" fill="#666666" stroke="#666666" stroke-width="2" stroke-dasharray="1px, 0px" /></marker><g><g><path d="M262.359,268.8L268.527,268.8C274.695,268.8,287.031,268.8,298.701,268.8C310.37,268.8,321.372,268.8,326.874,268.8L332.375,268.8" marker-end="url(#rw-architecture_flowchart-v2-pointEnd)" fill="none" stroke="#666666" stroke-dasharray="0px" /><path d="M638.781,268.8L653.404,268.8C668.026,268.8,697.271,268.8,726.516,268.8C755.76,268.8,785.005,268.8,799.628,268.8L814.25,268.8" marker-start="url(#rw-architecture_flowchart-v2-pointStart)" marker-end="url(#rw-architecture_flowchart-v2-pointEnd)" fill="none" stroke="#666666" stroke-dasharray="0px" /><path d="M1065.094,268.8L1074.595,268.8C1084.096,268.8,1103.099,268.8,1122.102,268.8C1141.104,268.8,1160.107,268.8,1169.608,268.8L1179.109,268.8" marker-start="url(#rw-architecture_flowchart-v2-pointStart)" marker-end="url(#rw-architecture_flowchart-v2-pointEnd)" fill="none" stroke="#666666" stroke-dasharray="0px" /></g><g><g transform="translate(299.367, 268.8)"><g transform="translate(-18.008, -14)"><g><rect x="-2" y="-5" width="36.016" height="28" fill="#ffffff" opacity="0.5" /><text y="-10.1"><tspan x="0" y="-0.1em" dy="1.1em"><tspan font-style="normal">调用</tspan></tspan></text></g></g></g><g transform="translate(726.516, 268.8)"><g transform="translate(-72.734, -14)"><g><rect x="-2" y="-5" width="145.469" height="28" fill="#ffffff" opacity="0.5" /><text y="-10.1"><tspan x="0" y="-0.1em" dy="1.1em"><tspan font-style="normal">语义核对</tspan><tspan font-style="normal"> /</tspan><tspan font-style="normal"> 修改回流</tspan></tspan></text></g></g></g><g transform="translate(1122.102, 268.8)"><g transform="translate(-42.008, -14)"><g><rect x="-2" y="-5" width="84.016" height="28" fill="#ffffff" opacity="0.5" /><text y="-10.1"><tspan x="0" y="-0.1em" dy="1.1em"><tspan font-style="normal">仅稿件范围</tspan></tspan></text></g></g></g></g><g><g transform="translate(1175.109, 108.7)"><g><g><rect x="8" y="8" width="259.781" height="301.2" fill="#fcfcfc" stroke="#707070" /><g transform="translate(88.805, 8)"><g><rect fill="#fcfcfc" /><text y="-10.1" fill="#333333"><tspan x="0" y="-0.1em" dy="1.1em" fill="#333333"><tspan font-style="normal" fill="#333333">Overleaf</tspan><tspan font-style="normal" fill="#333333"> 协作</tspan></tspan></text></g></g></g></g><g><path d="M137.891,117.1L137.891,124.017C137.891,130.933,137.891,144.767,137.891,158.6C137.891,172.433,137.891,186.267,137.891,193.183L137.891,200.1" marker-start="url(#rw-architecture_flowchart-v2-pointStart)" marker-end="url(#rw-architecture_flowchart-v2-pointEnd)" fill="none" stroke="#666666" stroke-dasharray="0px" /></g><g><g transform="translate(137.891, 158.6)"><g transform="translate(-42.008, -14)"><g><rect x="-2" y="-5" width="84.016" height="28" fill="#ffffff" opacity="0.5" /><text y="-10.1"><tspan x="0" y="-0.1em" dy="1.1em"><tspan font-style="normal">已授权连接</tspan></tspan></text></g></g></g></g><g><g transform="translate(137.891, 76.3)"><rect x="-103.696" y="-36.8" width="207.392" height="73.6" fill="#eeeeee" stroke="#999999" /><g transform="translate(0, -20.8)"><rect fill="#eeeeee" stroke="#999999" /><g><rect fill="#eeeeee" /><text y="-10.1" text-anchor="middle"><tspan x="0" y="-0.1em" dy="1.1em" text-anchor="middle"><tspan font-style="normal" text-anchor="middle">Overleaf-Workshop</tspan></tspan><tspan x="0" y="1em" dy="1.1em" text-anchor="middle"><tspan font-style="normal" text-anchor="middle">本地</tspan><tspan font-style="normal" text-anchor="middle"> Replica</tspan><tspan font-style="normal" text-anchor="middle"> 与同步</tspan></tspan></text></g></g></g><g transform="translate(137.891, 240.9)"><rect x="-106.891" y="-36.8" width="213.781" height="73.6" fill="#eeeeee" stroke="#999999" /><g transform="translate(0, -20.8)"><rect fill="#eeeeee" stroke="#999999" /><g><rect fill="#eeeeee" /><text y="-10.1" text-anchor="middle"><tspan x="0" y="-0.1em" dy="1.1em" text-anchor="middle"><tspan font-style="normal" text-anchor="middle">指定的</tspan><tspan font-style="normal" text-anchor="middle"> Overleaf</tspan><tspan font-style="normal" text-anchor="middle"> 项目</tspan></tspan><tspan x="0" y="1em" dy="1.1em" text-anchor="middle"><tspan font-style="normal" text-anchor="middle">支持自建服务器</tspan></tspan></text></g></g></g></g></g><g transform="translate(328.375, 0)"><g><g><rect x="8" y="8" width="298.406" height="518.6" fill="#fcfcfc" stroke="#707070" /><g transform="translate(106.847, 8)"><g><rect fill="#fcfcfc" /><text y="-10.1" fill="#333333"><tspan x="0" y="-0.1em" dy="1.1em" fill="#333333"><tspan font-style="normal" fill="#333333">aiworkspace/</tspan></tspan></text></g></g></g></g><g><path d="M157.203,113.1L157.203,120.683C157.203,128.267,157.203,143.433,157.203,157.933C157.203,172.433,157.203,186.267,157.203,193.183L157.203,200.1" marker-end="url(#rw-architecture_flowchart-v2-pointEnd)" fill="none" stroke="#666666" stroke-dasharray="0px" /><path d="M157.203,330.5L157.203,338.083C157.203,345.667,157.203,360.833,157.203,376C157.203,391.167,157.203,406.333,157.203,413.917L157.203,421.5" fill="none" stroke="#666666" stroke-dasharray="0px" /></g><g><g transform="translate(157.203, 158.6)"><g transform="translate(-64.734, -14)"><g><rect x="-2" y="-5" width="129.469" height="28" fill="#ffffff" opacity="0.5" /><text y="-10.1"><tspan x="0" y="-0.1em" dy="1.1em"><tspan font-style="normal">读取</tspan><tspan font-style="normal"> /</tspan><tspan font-style="normal"> 按授权维护</tspan></tspan></text></g></g></g><g transform="translate(157.203, 376)"><g transform="translate(-66.008, -14)"><g><rect x="-2" y="-5" width="132.016" height="28" fill="#ffffff" opacity="0.5" /><text y="-10.1"><tspan x="0" y="-0.1em" dy="1.1em"><tspan font-style="normal">材料、引用与关系</tspan></tspan></text></g></g></g></g><g><g transform="translate(157.203, 76.3)"><rect x="-122.867" y="-36.8" width="245.734" height="73.6" fill="#eeeeee" stroke="#999999" /><g transform="translate(0, -20.8)"><rect fill="#eeeeee" stroke="#999999" /><g><rect fill="#eeeeee" /><text y="-10.1" text-anchor="middle"><tspan x="0" y="-0.1em" dy="1.1em" text-anchor="middle"><tspan font-style="normal" text-anchor="middle">.system/</tspan><tspan font-style="normal" text-anchor="middle"> ·</tspan><tspan font-style="normal" text-anchor="middle"> 通用能力</tspan></tspan><tspan x="0" y="1em" dy="1.1em" text-anchor="middle"><tspan font-style="normal" text-anchor="middle">Skills</tspan><tspan font-style="normal" text-anchor="middle"> ·</tspan><tspan font-style="normal" text-anchor="middle"> 引擎</tspan><tspan font-style="normal" text-anchor="middle"> ·</tspan><tspan font-style="normal" text-anchor="middle"> 空白模板</tspan></tspan></text></g></g></g><g transform="translate(157.203, 267.3)"><rect x="-126.203" y="-63.2" width="252.406" height="126.4" fill="#eeeeee" stroke="#999999" /><g transform="translate(0, -47.2)"><rect fill="#eeeeee" stroke="#999999" /><g><rect fill="#eeeeee" /><text y="-10.1" text-anchor="middle"><tspan x="0" y="-0.1em" dy="1.1em" text-anchor="middle"><tspan font-style="normal" text-anchor="middle">八类研究内容</tspan></tspan><tspan x="0" y="1em" dy="1.1em" text-anchor="middle"><tspan font-style="normal" text-anchor="middle">①</tspan><tspan font-style="normal" text-anchor="middle"> research　②</tspan><tspan font-style="normal" text-anchor="middle"> sources</tspan></tspan><tspan x="0" y="2.1em" dy="1.1em" text-anchor="middle"><tspan font-style="normal" text-anchor="middle">③</tspan><tspan font-style="normal" text-anchor="middle"> evidence　④</tspan><tspan font-style="normal" text-anchor="middle"> methods</tspan></tspan><tspan x="0" y="3.2em" dy="1.1em" text-anchor="middle"><tspan font-style="normal" text-anchor="middle">⑤</tspan><tspan font-style="normal" text-anchor="middle"> rules　⑥</tspan><tspan font-style="normal" text-anchor="middle"> figures</tspan></tspan><tspan x="0" y="4.3em" dy="1.1em" text-anchor="middle"><tspan font-style="normal" text-anchor="middle">⑦</tspan><tspan font-style="normal" text-anchor="middle"> history　⑧</tspan><tspan font-style="normal" text-anchor="middle"> sync</tspan></tspan></text></g></g></g><g transform="translate(157.203, 458.3)"><rect x="-123.24" y="-36.8" width="246.481" height="73.6" fill="#eeeeee" stroke="#999999" /><g transform="translate(0, -20.8)"><rect fill="#eeeeee" stroke="#999999" /><g><rect fill="#eeeeee" /><text y="-10.1" text-anchor="middle"><tspan x="0" y="-0.1em" dy="1.1em" text-anchor="middle"><tspan font-style="normal" text-anchor="middle">.system/state</tspan><tspan font-style="normal" text-anchor="middle"> ·</tspan><tspan font-style="normal" text-anchor="middle"> runtime</tspan></tspan><tspan x="0" y="1em" dy="1.1em" text-anchor="middle"><tspan font-style="normal" text-anchor="middle">本论文状态</tspan><tspan font-style="normal" text-anchor="middle"> ·</tspan><tspan font-style="normal" text-anchor="middle"> 更新保护</tspan></tspan></text></g></g></g></g></g><g transform="translate(0, 117.5)"><g><g><rect x="8" y="8" width="254.359" height="283.6" fill="#fcfcfc" stroke="#707070" /><g transform="translate(87.172, 8)"><g><rect fill="#fcfcfc" /><text y="-10.1" fill="#333333"><tspan x="0" y="-0.1em" dy="1.1em" fill="#333333"><tspan font-style="normal" fill="#333333">自然语言入口</tspan></tspan></text></g></g></g></g><g><path d="M135.18,99.5L135.18,106.417C135.18,113.333,135.18,127.167,135.18,141C135.18,154.833,135.18,168.667,135.18,175.583L135.18,182.5" marker-start="url(#rw-architecture_flowchart-v2-pointStart)" marker-end="url(#rw-architecture_flowchart-v2-pointEnd)" fill="none" stroke="#666666" stroke-dasharray="0px" /></g><g><g transform="translate(135.18, 141)"><g transform="translate(-42.008, -14)"><g><rect x="-2" y="-5" width="84.016" height="28" fill="#ffffff" opacity="0.5" /><text y="-10.1"><tspan x="0" y="-0.1em" dy="1.1em"><tspan font-style="normal">任务与结果</tspan></tspan></text></g></g></g></g><g><g transform="translate(135.18, 67.5)"><rect x="-78.734" y="-28" width="157.469" height="56" fill="#eeeeee" stroke="#999999" /><g transform="translate(0, -12)"><rect fill="#eeeeee" stroke="#999999" /><g><rect fill="#eeeeee" /><text y="-10.1" text-anchor="middle"><tspan x="0" y="-0.1em" dy="1.1em" text-anchor="middle"><tspan font-style="normal" text-anchor="middle">作者</tspan><tspan font-style="normal" text-anchor="middle"> /</tspan><tspan font-style="normal" text-anchor="middle"> 合作者</tspan></tspan></text></g></g></g><g transform="translate(135.18, 223.3)"><rect x="-104.18" y="-36.8" width="208.359" height="73.6" fill="#eeeeee" stroke="#999999" /><g transform="translate(0, -20.8)"><rect fill="#eeeeee" stroke="#999999" /><g><rect fill="#eeeeee" /><text y="-10.1" text-anchor="middle"><tspan x="0" y="-0.1em" dy="1.1em" text-anchor="middle"><tspan font-style="normal" text-anchor="middle">自己的</tspan><tspan font-style="normal" text-anchor="middle"> Agent</tspan></tspan><tspan x="0" y="1em" dy="1.1em" text-anchor="middle"><tspan font-style="normal" text-anchor="middle">AGENTS.md</tspan><tspan font-style="normal" text-anchor="middle"> ·</tspan><tspan font-style="normal" text-anchor="middle"> 菜单</tspan></tspan></text></g></g></g></g></g><g transform="translate(939.672, 268.8)"><rect x="-121.422" y="-36.8" width="242.844" height="73.6" fill="#eeeeee" stroke="#999999" /><g transform="translate(0, -20.8)"><rect fill="#eeeeee" stroke="#999999" /><g><rect fill="#eeeeee" /><text y="-10.1" text-anchor="middle"><tspan x="0" y="-0.1em" dy="1.1em" text-anchor="middle"><tspan font-style="normal" text-anchor="middle">manuscript/</tspan><tspan font-style="normal" text-anchor="middle"> ·</tspan><tspan font-style="normal" text-anchor="middle"> 正式稿件</tspan></tspan><tspan x="0" y="1em" dy="1.1em" text-anchor="middle"><tspan font-style="normal" text-anchor="middle">Overleaf</tspan><tspan font-style="normal" text-anchor="middle"> 原目录与内容</tspan></tspan></text></g></g></g></g></g></g></svg>
